<svg xmlns="http://www.w3.org/2000/svg" version="1.1" xmlns:xlink="http://www.w3.org/1999/xlink" xmlns:svgjs="http://svgjs.dev/svgjs" width="1000" height="1000" viewBox="0 0 1000 1000"><rect width="1000" height="1000" fill="#ffffff"></rect><g transform="matrix(0.7,0,0,0.7,149.90044910179654,149.90044910179637)"><svg viewBox="0 0 334 334" data-background-color="#528265" preserveAspectRatio="xMidYMid meet" height="1000" width="1000" xmlns="http://www.w3.org/2000/svg" xmlns:xlink="http://www.w3.org/1999/xlink"><g id="tight-bounds" transform="matrix(1,0,0,1,0.04749999999998522,0.04750000000001364)"><svg viewBox="0 0 333.90454557049503 333.90454557049503" height="333.90454557049503" width="333.90454557049503"><g><svg></svg></g><g><svg viewBox="0 0 333.90454557049503 333.90454557049503" height="333.90454557049503" width="333.90454557049503"><g><path d="M0 166.952c0-92.205 74.747-166.952 166.952-166.952 92.205 0 166.952 74.747 166.953 166.952 0 92.205-74.747 166.952-166.953 166.953-92.205 0-166.952-74.747-166.952-166.953zM166.952 327.306c88.561 0 160.354-71.793 160.354-160.354 0-88.561-71.793-160.354-160.354-160.354-88.561 0-160.354 71.793-160.354 160.354 0 88.561 71.793 160.354 160.354 160.354z" data-fill-palette-color="tertiary" fill="#000000" stroke="transparent"></path><ellipse rx="160.27418187383762" ry="160.27418187383762" cx="166.95227278524752" cy="166.95227278524752" fill="#000000" stroke="transparent" stroke-width="0" fill-opacity="1" data-fill-palette-color="tertiary"></ellipse></g><g transform="matrix(1,0,0,1,64.22360021448215,71.17305217166896)"><svg viewBox="0 0 205.45734514153074 191.55844122715712" height="191.55844122715712" width="205.45734514153074"><g><svg viewBox="0 0 205.45734514153074 191.55844122715712" height="191.55844122715712" width="205.45734514153074"><g><svg viewBox="0 0 213.15844122715714 198.73856886331902" height="191.55844122715712" width="205.45734514153074"><g transform="matrix(1,0,0,1,0,122.82840855348883)"><svg viewBox="0 0 213.15844122715714 75.9101603098302" height="75.9101603098302" width="213.15844122715714"><g id="textblocktransform"><svg viewBox="0 0 213.15844122715714 75.9101603098302" height="75.9101603098302" width="213.15844122715714" id="textblock"><g><svg viewBox="0 0 213.15844122715714 75.9101603098302" height="75.9101603098302" width="213.15844122715714"><g transform="matrix(1,0,0,1,0,0)"><svg width="213.15844122715714" viewBox="2.25 -33.25 94.33999633789062 33.599998474121094" height="75.9101603098302" data-palette-color="#528265"><path d="M2.25 0L2.25-0.5 2.5-0.5Q2.9-0.5 3.2-0.78 3.5-1.05 3.73-1.45 3.95-1.85 4.08-2.3 4.2-2.75 4.2-3.15L4.2-3.15 4.2-29.9Q4.2-30.25 4.08-30.7 3.95-31.15 3.73-31.55 3.5-31.95 3.2-32.23 2.9-32.5 2.5-32.5L2.5-32.5 2.25-32.5 2.25-33 21.5-33 21.5-28.35 21-28.35Q20.9-29.5 20.1-30.38 19.3-31.25 17.6-31.25L17.6-31.25 7.55-31.25 7.55-18.6 15.85-18.6Q17-18.6 17.78-19.3 18.55-20 18.55-20.95L18.55-20.95 19.05-20.95 19.05-14.7 18.55-14.7Q18.55-15.6 17.8-16.25 17.05-16.9 15.85-16.9L15.85-16.9 7.55-16.9 7.55-1.75 18.5-1.75Q19.45-1.75 20.15-2.2 20.85-2.65 21.33-3.28 21.8-3.9 22.03-4.63 22.25-5.35 22.25-5.85L22.25-5.85 22.75-5.85 22.75 0 2.25 0ZM44.95-5.7L44.95-1.8Q44.55-1.8 44.2-1.63 43.85-1.45 43.4-1.2L43.4-1.2Q42.55-0.7 41.25-0.18 39.95 0.35 37.85 0.35L37.85 0.35Q35.3 0.35 33.12-0.48 30.95-1.3 29.37-2.78 27.8-4.25 26.92-6.23 26.05-8.2 26.05-10.5L26.05-10.5Q26.05-12.65 26.82-14.6 27.6-16.55 29.05-18.05 30.5-19.55 32.62-20.45 34.75-21.35 37.45-21.35L37.45-21.35Q39.3-21.35 40.45-20.93 41.6-20.5 42.4-20.1L42.4-20.1Q42.85-19.85 43.27-19.7 43.7-19.55 44.15-19.55L44.15-19.55 44.15-15.75 43.65-15.75Q43.4-16.7 42.75-17.43 42.1-18.15 41.25-18.65 40.4-19.15 39.4-19.4 38.4-19.65 37.45-19.65L37.45-19.65Q35.4-19.65 33.85-18.93 32.3-18.2 31.3-17.03 30.3-15.85 29.8-14.35 29.3-12.85 29.3-11.25L29.3-11.25Q29.3-9.4 29.9-7.63 30.5-5.85 31.62-4.45 32.75-3.05 34.35-2.2 35.95-1.35 37.95-1.35L37.95-1.35Q39.35-1.35 40.52-1.75 41.7-2.15 42.52-2.8 43.35-3.45 43.85-4.23 44.35-5 44.45-5.7L44.45-5.7 44.95-5.7ZM68.4-12.9L68.4-3.25Q68.4-2.85 68.5-2.38 68.59-1.9 68.82-1.5 69.05-1.1 69.32-0.8 69.59-0.5 70-0.5L70-0.5 70 0 63.55 0 63.55-0.5Q63.9-0.5 64.2-0.8 64.5-1.1 64.72-1.5 64.95-1.9 65.05-2.38 65.15-2.85 65.15-3.25L65.15-3.25 65.15-12.55Q65.15-14.35 64.65-15.7 64.15-17.05 63.3-17.95 62.45-18.85 61.37-19.28 60.3-19.7 59.2-19.7L59.2-19.7Q58.09-19.7 57.02-19.28 55.95-18.85 55.12-18.1 54.3-17.35 53.77-16.28 53.25-15.2 53.25-13.9L53.25-13.9 53.25-3.25Q53.25-2.85 53.34-2.38 53.45-1.9 53.67-1.5 53.9-1.1 54.17-0.8 54.45-0.5 54.84-0.5L54.84-0.5 54.84 0 48.34 0 48.34-0.5Q48.7-0.5 49-0.8 49.3-1.1 49.52-1.5 49.75-1.9 49.84-2.38 49.95-2.85 49.95-3.25L49.95-3.25 49.95-28.8Q49.95-29.65 49.7-30.4 49.45-31.15 48.25-31.2L48.25-31.2 48.25-31.7 53.25-33.25 53.25-18.8Q53.59-19.2 54.15-19.68 54.7-20.15 55.47-20.58 56.25-21 57.27-21.28 58.3-21.55 59.7-21.55L59.7-21.55Q62.05-21.55 63.7-20.75 65.34-19.95 66.4-18.68 67.45-17.4 67.92-15.88 68.4-14.35 68.4-12.9L68.4-12.9ZM85.39 0.35L85.39 0.35Q82.89 0.35 80.89-0.48 78.89-1.3 77.47-2.73 76.04-4.15 75.27-6.1 74.49-8.05 74.49-10.35L74.49-10.35Q74.49-12.8 75.34-14.83 76.19-16.85 77.69-18.3 79.19-19.75 81.24-20.55 83.29-21.35 85.69-21.35L85.69-21.35Q88.09-21.35 90.09-20.58 92.09-19.8 93.54-18.4 94.99-17 95.79-15.08 96.59-13.15 96.59-10.85L96.59-10.85Q96.59-8.7 95.87-6.68 95.14-4.65 93.72-3.1 92.29-1.55 90.22-0.6 88.14 0.35 85.39 0.35ZM85.09-19.7L85.09-19.7Q83.29-19.6 81.92-18.82 80.54-18.05 79.62-16.82 78.69-15.6 78.22-14.05 77.74-12.5 77.74-10.9L77.74-10.9Q77.74-9.05 78.32-7.33 78.89-5.6 79.97-4.25 81.04-2.9 82.54-2.1 84.04-1.3 85.89-1.3L85.89-1.3Q87.74-1.3 89.17-2.1 90.59-2.9 91.54-4.17 92.49-5.45 92.97-7.05 93.44-8.65 93.44-10.25L93.44-10.25Q93.44-11.9 92.94-13.58 92.44-15.25 91.39-16.63 90.34-18 88.77-18.85 87.19-19.7 85.09-19.7Z" opacity="1" transform="matrix(1,0,0,1,0,0)" fill="#ffffff" class="wordmark-text-0" data-fill-palette-color="quaternary" id="text-0"></path></svg></g></svg></g></svg></g></svg></g><g transform="matrix(1,0,0,1,53.11332532606166,0)"><svg viewBox="0 0 106.93179057503382 104.90784154818535" height="104.90784154818535" width="106.93179057503382"><g><svg xmlns="http://www.w3.org/2000/svg" xmlns:xlink="http://www.w3.org/1999/xlink" version="1.1" x="0" y="0" viewBox="2.4000000953674316 3.5 95.0999984741211 93.29999542236328" enable-background="new 0 0 100 100" xml:space="preserve" height="104.90784154818535" width="106.93179057503382" class="icon-icon-0" data-fill-palette-color="quaternary" id="icon-0"><g fill="#528265" data-fill-palette-color="quaternary"><g fill="#528265" data-fill-palette-color="quaternary"><path d="M65.3 3.5H34.7C16.9 3.5 2.4 19.2 2.4 38.5c0 16.4 10.4 30.5 25 34.2v22.1c0 0.8 0.4 1.5 1.1 1.8 0.3 0.1 0.5 0.2 0.8 0.2 0.5 0 0.9-0.2 1.3-0.5l25.8-22.7h8.9c17.8 0 32.2-15.7 32.2-35.1S83.1 3.5 65.3 3.5zM65.3 69.7h-9.7c-0.5 0-0.9 0.2-1.3 0.5L31.3 90.5V71.1c0-0.9-0.7-1.7-1.6-1.9C16.2 66.6 6.3 53.7 6.3 38.5 6.3 21.4 19 7.4 34.7 7.4h30.7c15.6 0 28.3 14 28.3 31.2C93.7 55.7 81 69.7 65.3 69.7z" fill="#ffffff" data-fill-palette-color="quaternary"></path></g><g fill="#528265" data-fill-palette-color="quaternary"><g fill="#528265" data-fill-palette-color="quaternary"><path d="M23.3 45.6c-0.5 0-0.8-0.4-0.8-0.8v-9.3c0-0.5 0.4-0.8 0.8-0.8 0.5 0 0.8 0.4 0.8 0.8v9.3C24.2 45.2 23.8 45.6 23.3 45.6z" fill="#ffffff" data-fill-palette-color="quaternary"></path></g><g fill="#528265" data-fill-palette-color="quaternary"><path d="M39.7 45.6c-0.5 0-0.8-0.4-0.8-0.8v-9.3c0-0.5 0.4-0.8 0.8-0.8s0.8 0.4 0.8 0.8v9.3C40.6 45.2 40.2 45.6 39.7 45.6z" fill="#ffffff" data-fill-palette-color="quaternary"></path></g><g fill="#528265" data-fill-palette-color="quaternary"><path d="M56.2 47.2c-0.5 0-0.8-0.4-0.8-0.8V33.8c0-0.5 0.4-0.8 0.8-0.8 0.5 0 0.8 0.4 0.8 0.8v12.6C57 46.8 56.6 47.2 56.2 47.2z" fill="#ffffff" data-fill-palette-color="quaternary"></path></g><g fill="#528265" data-fill-palette-color="quaternary"><path d="M60.3 44.3c-0.5 0-0.8-0.4-0.8-0.8v-6.8c0-0.5 0.4-0.8 0.8-0.8 0.5 0 0.8 0.4 0.8 0.8v6.8C61.1 44 60.7 44.3 60.3 44.3z" fill="#ffffff" data-fill-palette-color="quaternary"></path></g><g fill="#528265" data-fill-palette-color="quaternary"><path d="M76.7 44.3c-0.5 0-0.8-0.4-0.8-0.8v-6.8c0-0.5 0.4-0.8 0.8-0.8 0.5 0 0.8 0.4 0.8 0.8v6.8C77.5 44 77.1 44.3 76.7 44.3z" fill="#ffffff" data-fill-palette-color="quaternary"></path></g><g fill="#528265" data-fill-palette-color="quaternary"><path d="M27.4 48.7c-0.5 0-0.8-0.4-0.8-0.8V32.2c0-0.5 0.4-0.8 0.8-0.8s0.8 0.4 0.8 0.8v15.7C28.3 48.4 27.9 48.7 27.4 48.7z" fill="#ffffff" data-fill-palette-color="quaternary"></path></g><g fill="#528265" data-fill-palette-color="quaternary"><path d="M43.8 48.7c-0.5 0-0.8-0.4-0.8-0.8V32.2c0-0.5 0.4-0.8 0.8-0.8 0.5 0 0.8 0.4 0.8 0.8v15.7C44.7 48.4 44.3 48.7 43.8 48.7z" fill="#ffffff" data-fill-palette-color="quaternary"></path></g><g fill="#528265" data-fill-palette-color="quaternary"><path d="M47.9 51.4c-0.5 0-0.8-0.4-0.8-0.8v-21c0-0.5 0.4-0.8 0.8-0.8 0.5 0 0.8 0.4 0.8 0.8v21C48.8 51.1 48.4 51.4 47.9 51.4z" fill="#ffffff" data-fill-palette-color="quaternary"></path></g><g fill="#528265" data-fill-palette-color="quaternary"><path d="M68.5 48.7c-0.5 0-0.8-0.4-0.8-0.8V32.2c0-0.5 0.4-0.8 0.8-0.8 0.5 0 0.8 0.4 0.8 0.8v15.7C69.3 48.4 68.9 48.7 68.5 48.7z" fill="#ffffff" data-fill-palette-color="quaternary"></path></g><g fill="#528265" data-fill-palette-color="quaternary"><path d="M72.6 51.4c-0.5 0-0.8-0.4-0.8-0.8v-21c0-0.5 0.4-0.8 0.8-0.8s0.8 0.4 0.8 0.8v21C73.4 51.1 73 51.4 72.6 51.4z" fill="#ffffff" data-fill-palette-color="quaternary"></path></g><g fill="#528265" data-fill-palette-color="quaternary"><path d="M35.6 50.7c-0.5 0-0.8-0.4-0.8-0.8V30.3c0-0.5 0.4-0.8 0.8-0.8 0.5 0 0.8 0.4 0.8 0.8v19.6C36.5 50.3 36.1 50.7 35.6 50.7z" fill="#ffffff" data-fill-palette-color="quaternary"></path></g><g fill="#528265" data-fill-palette-color="quaternary"><path d="M31.5 56.6c-0.5 0-0.8-0.4-0.8-0.8V24.4c0-0.5 0.4-0.8 0.8-0.8 0.5 0 0.8 0.4 0.8 0.8v31.3C32.4 56.2 32 56.6 31.5 56.6z" fill="#ffffff" data-fill-palette-color="quaternary"></path></g><g fill="#528265" data-fill-palette-color="quaternary"><path d="M52.1 55.1c-0.5 0-0.8-0.4-0.8-0.8V25.9c0-0.5 0.4-0.8 0.8-0.8 0.5 0 0.8 0.4 0.8 0.8v28.4C52.9 54.7 52.5 55.1 52.1 55.1z" fill="#ffffff" data-fill-palette-color="quaternary"></path></g><g fill="#528265" data-fill-palette-color="quaternary"><path d="M64.4 55.1c-0.5 0-0.8-0.4-0.8-0.8V25.9c0-0.5 0.4-0.8 0.8-0.8s0.8 0.4 0.8 0.8v28.4C65.2 54.7 64.8 55.1 64.4 55.1z" fill="#ffffff" data-fill-palette-color="quaternary"></path></g><g fill="#528265" data-fill-palette-color="quaternary"><path d="M76.1 40.7H23.8c-0.5 0-0.8-0.4-0.8-0.8s0.4-0.8 0.8-0.8h52.3c0.5 0 0.8 0.4 0.8 0.8S76.6 40.7 76.1 40.7z" fill="#ffffff" data-fill-palette-color="quaternary"></path></g></g></g></svg></g></svg></g><g></g></svg></g></svg></g></svg></g></svg></g><defs></defs></svg><rect width="333.90454557049503" height="333.90454557049503" fill="none" stroke="none" visibility="hidden"></rect></g></svg></g></svg>